<mxfile host="65bd71144e">
    <diagram id="K9FJ0nIH5F84wrLb9zqu" name="Page-1">
        <mxGraphModel dx="717" dy="381" grid="0" gridSize="10" guides="1" tooltips="1" connect="1" arrows="1" fold="1" page="0" pageScale="1" pageWidth="1200" pageHeight="1300" background="#ffffff" math="1" shadow="0">
            <root>
                <mxCell id="0"/>
                <mxCell id="1" parent="0"/>
                <mxCell id="83" value="$$P=\frac{card((A\cap C)\cap(B\cap C))}{card(A)}\times 100\% \qquad (1)$$" style="text;html=1;strokeColor=none;fillColor=none;align=center;verticalAlign=middle;whiteSpace=wrap;rounded=0;rotation=0;fontSize=24;fontColor=#000000;" parent="1" vertex="1">
                    <mxGeometry x="350" y="340" width="60" height="40" as="geometry"/>
                </mxCell>
            </root>
        </mxGraphModel>
    </diagram>
</mxfile>